<mxfile host="Electron" agent="Mozilla/5.0 (Windows NT 10.0; Win64; x64) AppleWebKit/537.36 (KHTML, like Gecko) draw.io/26.1.1 Chrome/132.0.6834.210 Electron/34.3.3 Safari/537.36" version="26.1.1">
  <diagram name="Page-1" id="8kVjy3J-Sd4jWEpiYbVv">
    <mxGraphModel dx="2580" dy="1242" grid="1" gridSize="10" guides="1" tooltips="1" connect="1" arrows="1" fold="1" page="1" pageScale="1000" pageWidth="850" pageHeight="1100" math="0" shadow="0">
      <root>
        <mxCell id="0" />
        <mxCell id="1" parent="0" />
        <mxCell id="53a5jM5eO1rhn4Mg1j0m-1" value="Evaluator" style="shape=umlActor;verticalLabelPosition=bottom;verticalAlign=top;html=1;" vertex="1" parent="1">
          <mxGeometry x="410" y="130" width="30" height="60" as="geometry" />
        </mxCell>
        <mxCell id="53a5jM5eO1rhn4Mg1j0m-2" value=":ReportValidationUI" style="shape=umlLifeline;perimeter=lifelinePerimeter;whiteSpace=wrap;html=1;container=0;dropTarget=0;collapsible=0;recursiveResize=0;outlineConnect=0;portConstraint=eastwest;newEdgeStyle={&quot;edgeStyle&quot;:&quot;elbowEdgeStyle&quot;,&quot;elbow&quot;:&quot;vertical&quot;,&quot;curved&quot;:0,&quot;rounded&quot;:0};" vertex="1" parent="1">
          <mxGeometry x="505" y="140" width="170" height="1270" as="geometry" />
        </mxCell>
        <mxCell id="53a5jM5eO1rhn4Mg1j0m-5" value="" style="html=1;points=[];perimeter=orthogonalPerimeter;outlineConnect=0;targetShapes=umlLifeline;portConstraint=eastwest;newEdgeStyle={&quot;edgeStyle&quot;:&quot;elbowEdgeStyle&quot;,&quot;elbow&quot;:&quot;vertical&quot;,&quot;curved&quot;:0,&quot;rounded&quot;:0};" vertex="1" parent="53a5jM5eO1rhn4Mg1j0m-2">
          <mxGeometry x="80" y="110" width="10" height="1140" as="geometry" />
        </mxCell>
        <mxCell id="53a5jM5eO1rhn4Mg1j0m-6" value=":SystemManager" style="shape=umlLifeline;perimeter=lifelinePerimeter;whiteSpace=wrap;html=1;container=0;dropTarget=0;collapsible=0;recursiveResize=0;outlineConnect=0;portConstraint=eastwest;newEdgeStyle={&quot;edgeStyle&quot;:&quot;elbowEdgeStyle&quot;,&quot;elbow&quot;:&quot;vertical&quot;,&quot;curved&quot;:0,&quot;rounded&quot;:0};" vertex="1" parent="1">
          <mxGeometry x="730" y="140" width="170" height="1260" as="geometry" />
        </mxCell>
        <mxCell id="53a5jM5eO1rhn4Mg1j0m-3" value="" style="html=1;points=[];perimeter=orthogonalPerimeter;outlineConnect=0;targetShapes=umlLifeline;portConstraint=eastwest;newEdgeStyle={&quot;edgeStyle&quot;:&quot;elbowEdgeStyle&quot;,&quot;elbow&quot;:&quot;vertical&quot;,&quot;curved&quot;:0,&quot;rounded&quot;:0};" vertex="1" parent="53a5jM5eO1rhn4Mg1j0m-6">
          <mxGeometry x="80" y="140" width="10" height="1110" as="geometry" />
        </mxCell>
        <mxCell id="53a5jM5eO1rhn4Mg1j0m-7" value=":Report" style="shape=umlLifeline;perimeter=lifelinePerimeter;whiteSpace=wrap;html=1;container=0;dropTarget=0;collapsible=0;recursiveResize=0;outlineConnect=0;portConstraint=eastwest;newEdgeStyle={&quot;edgeStyle&quot;:&quot;elbowEdgeStyle&quot;,&quot;elbow&quot;:&quot;vertical&quot;,&quot;curved&quot;:0,&quot;rounded&quot;:0};" vertex="1" parent="1">
          <mxGeometry x="940" y="140" width="170" height="1280" as="geometry" />
        </mxCell>
        <mxCell id="53a5jM5eO1rhn4Mg1j0m-19" value="" style="html=1;points=[];perimeter=orthogonalPerimeter;outlineConnect=0;targetShapes=umlLifeline;portConstraint=eastwest;newEdgeStyle={&quot;edgeStyle&quot;:&quot;elbowEdgeStyle&quot;,&quot;elbow&quot;:&quot;vertical&quot;,&quot;curved&quot;:0,&quot;rounded&quot;:0};" vertex="1" parent="53a5jM5eO1rhn4Mg1j0m-7">
          <mxGeometry x="80" y="150" width="10" height="1110" as="geometry" />
        </mxCell>
        <mxCell id="53a5jM5eO1rhn4Mg1j0m-8" value=":AIAnalyzer" style="shape=umlLifeline;perimeter=lifelinePerimeter;whiteSpace=wrap;html=1;container=0;dropTarget=0;collapsible=0;recursiveResize=0;outlineConnect=0;portConstraint=eastwest;newEdgeStyle={&quot;edgeStyle&quot;:&quot;elbowEdgeStyle&quot;,&quot;elbow&quot;:&quot;vertical&quot;,&quot;curved&quot;:0,&quot;rounded&quot;:0};" vertex="1" parent="1">
          <mxGeometry x="1150" y="140" width="170" height="1280" as="geometry" />
        </mxCell>
        <mxCell id="53a5jM5eO1rhn4Mg1j0m-25" value="" style="html=1;points=[];perimeter=orthogonalPerimeter;outlineConnect=0;targetShapes=umlLifeline;portConstraint=eastwest;newEdgeStyle={&quot;edgeStyle&quot;:&quot;elbowEdgeStyle&quot;,&quot;elbow&quot;:&quot;vertical&quot;,&quot;curved&quot;:0,&quot;rounded&quot;:0};" vertex="1" parent="53a5jM5eO1rhn4Mg1j0m-8">
          <mxGeometry x="80" y="340" width="10" height="920" as="geometry" />
        </mxCell>
        <mxCell id="53a5jM5eO1rhn4Mg1j0m-9" value=":AnalysisResult" style="shape=umlLifeline;perimeter=lifelinePerimeter;whiteSpace=wrap;html=1;container=0;dropTarget=0;collapsible=0;recursiveResize=0;outlineConnect=0;portConstraint=eastwest;newEdgeStyle={&quot;edgeStyle&quot;:&quot;elbowEdgeStyle&quot;,&quot;elbow&quot;:&quot;vertical&quot;,&quot;curved&quot;:0,&quot;rounded&quot;:0};" vertex="1" parent="1">
          <mxGeometry x="1370" y="140" width="170" height="1290" as="geometry" />
        </mxCell>
        <mxCell id="53a5jM5eO1rhn4Mg1j0m-34" value="" style="html=1;points=[];perimeter=orthogonalPerimeter;outlineConnect=0;targetShapes=umlLifeline;portConstraint=eastwest;newEdgeStyle={&quot;edgeStyle&quot;:&quot;elbowEdgeStyle&quot;,&quot;elbow&quot;:&quot;vertical&quot;,&quot;curved&quot;:0,&quot;rounded&quot;:0};" vertex="1" parent="53a5jM5eO1rhn4Mg1j0m-9">
          <mxGeometry x="80" y="340" width="10" height="920" as="geometry" />
        </mxCell>
        <mxCell id="53a5jM5eO1rhn4Mg1j0m-11" value="" style="endArrow=none;dashed=1;html=1;dashPattern=1 3;strokeWidth=2;rounded=0;" edge="1" parent="1" source="53a5jM5eO1rhn4Mg1j0m-12" target="53a5jM5eO1rhn4Mg1j0m-1">
          <mxGeometry width="50" height="50" relative="1" as="geometry">
            <mxPoint x="425" y="440" as="sourcePoint" />
            <mxPoint x="740" y="360" as="targetPoint" />
          </mxGeometry>
        </mxCell>
        <mxCell id="53a5jM5eO1rhn4Mg1j0m-13" value="" style="endArrow=none;dashed=1;html=1;dashPattern=1 3;strokeWidth=2;rounded=0;" edge="1" parent="1">
          <mxGeometry width="50" height="50" relative="1" as="geometry">
            <mxPoint x="420" y="1350" as="sourcePoint" />
            <mxPoint x="420" y="1330" as="targetPoint" />
          </mxGeometry>
        </mxCell>
        <mxCell id="53a5jM5eO1rhn4Mg1j0m-12" value="" style="html=1;points=[];perimeter=orthogonalPerimeter;outlineConnect=0;targetShapes=umlLifeline;portConstraint=eastwest;newEdgeStyle={&quot;edgeStyle&quot;:&quot;elbowEdgeStyle&quot;,&quot;elbow&quot;:&quot;vertical&quot;,&quot;curved&quot;:0,&quot;rounded&quot;:0};" vertex="1" parent="1">
          <mxGeometry x="420" y="220" width="10" height="1170" as="geometry" />
        </mxCell>
        <mxCell id="53a5jM5eO1rhn4Mg1j0m-14" value="" style="endArrow=classic;html=1;rounded=0;" edge="1" parent="1">
          <mxGeometry width="50" height="50" relative="1" as="geometry">
            <mxPoint x="430" y="260.0000000000002" as="sourcePoint" />
            <mxPoint x="589.4999999999998" y="260.0000000000002" as="targetPoint" />
          </mxGeometry>
        </mxCell>
        <mxCell id="53a5jM5eO1rhn4Mg1j0m-15" value="requestValidation(reportId)" style="text;html=1;align=center;verticalAlign=middle;whiteSpace=wrap;rounded=0;" vertex="1" parent="1">
          <mxGeometry x="430" y="230" width="160" height="30" as="geometry" />
        </mxCell>
        <mxCell id="53a5jM5eO1rhn4Mg1j0m-16" value="" style="endArrow=classic;html=1;rounded=0;" edge="1" parent="1">
          <mxGeometry width="50" height="50" relative="1" as="geometry">
            <mxPoint x="590" y="300.0000000000002" as="sourcePoint" />
            <mxPoint x="809.4999999999998" y="300.0000000000002" as="targetPoint" />
          </mxGeometry>
        </mxCell>
        <mxCell id="53a5jM5eO1rhn4Mg1j0m-18" value="validateReport(reportId)" style="text;html=1;align=center;verticalAlign=middle;whiteSpace=wrap;rounded=0;" vertex="1" parent="1">
          <mxGeometry x="630" y="260" width="160" height="30" as="geometry" />
        </mxCell>
        <mxCell id="53a5jM5eO1rhn4Mg1j0m-20" value="" style="endArrow=classic;html=1;rounded=0;" edge="1" parent="1">
          <mxGeometry width="50" height="50" relative="1" as="geometry">
            <mxPoint x="820" y="340" as="sourcePoint" />
            <mxPoint x="1025.75" y="340" as="targetPoint" />
          </mxGeometry>
        </mxCell>
        <mxCell id="53a5jM5eO1rhn4Mg1j0m-21" value="&amp;nbsp;getImage()" style="text;html=1;align=center;verticalAlign=middle;whiteSpace=wrap;rounded=0;" vertex="1" parent="1">
          <mxGeometry x="840" y="310" width="160" height="30" as="geometry" />
        </mxCell>
        <mxCell id="53a5jM5eO1rhn4Mg1j0m-22" value="" style="endArrow=classic;html=1;rounded=0;" edge="1" parent="1">
          <mxGeometry width="50" height="50" relative="1" as="geometry">
            <mxPoint x="820" y="440" as="sourcePoint" />
            <mxPoint x="1020" y="440" as="targetPoint" />
          </mxGeometry>
        </mxCell>
        <mxCell id="53a5jM5eO1rhn4Mg1j0m-23" value="&amp;nbsp;getText()" style="text;html=1;align=center;verticalAlign=middle;whiteSpace=wrap;rounded=0;" vertex="1" parent="1">
          <mxGeometry x="840" y="410" width="160" height="30" as="geometry" />
        </mxCell>
        <mxCell id="53a5jM5eO1rhn4Mg1j0m-24" value="" style="endArrow=classic;html=1;rounded=0;" edge="1" parent="1">
          <mxGeometry width="50" height="50" relative="1" as="geometry">
            <mxPoint x="817.75" y="508.57" as="sourcePoint" />
            <mxPoint x="1232.2499999999998" y="508.57" as="targetPoint" />
          </mxGeometry>
        </mxCell>
        <mxCell id="53a5jM5eO1rhn4Mg1j0m-26" value="analyzeImage(image)" style="text;html=1;align=center;verticalAlign=middle;whiteSpace=wrap;rounded=0;" vertex="1" parent="1">
          <mxGeometry x="840" y="480" width="160" height="30" as="geometry" />
        </mxCell>
        <mxCell id="53a5jM5eO1rhn4Mg1j0m-27" value="imageResult" style="html=1;verticalAlign=bottom;endArrow=open;dashed=1;endSize=8;curved=0;rounded=0;" edge="1" parent="1">
          <mxGeometry relative="1" as="geometry">
            <mxPoint x="1440" y="540.0000000000002" as="sourcePoint" />
            <mxPoint x="1230" y="540.0000000000002" as="targetPoint" />
          </mxGeometry>
        </mxCell>
        <mxCell id="53a5jM5eO1rhn4Mg1j0m-28" value="" style="endArrow=classic;html=1;rounded=0;" edge="1" parent="1">
          <mxGeometry width="50" height="50" relative="1" as="geometry">
            <mxPoint x="817.75" y="800" as="sourcePoint" />
            <mxPoint x="1232.2499999999998" y="800" as="targetPoint" />
          </mxGeometry>
        </mxCell>
        <mxCell id="53a5jM5eO1rhn4Mg1j0m-29" value="analyzeImage(text)" style="text;html=1;align=center;verticalAlign=middle;whiteSpace=wrap;rounded=0;" vertex="1" parent="1">
          <mxGeometry x="850" y="770" width="160" height="30" as="geometry" />
        </mxCell>
        <mxCell id="53a5jM5eO1rhn4Mg1j0m-30" value="textResult" style="html=1;verticalAlign=bottom;endArrow=open;dashed=1;endSize=8;curved=0;rounded=0;" edge="1" parent="1">
          <mxGeometry relative="1" as="geometry">
            <mxPoint x="1444.4999999999995" y="834.33" as="sourcePoint" />
            <mxPoint x="1230" y="834.33" as="targetPoint" />
          </mxGeometry>
        </mxCell>
        <mxCell id="53a5jM5eO1rhn4Mg1j0m-31" value="" style="endArrow=classic;html=1;rounded=0;" edge="1" parent="1">
          <mxGeometry width="50" height="50" relative="1" as="geometry">
            <mxPoint x="819.06" y="1150" as="sourcePoint" />
            <mxPoint x="1233.5599999999997" y="1150" as="targetPoint" />
          </mxGeometry>
        </mxCell>
        <mxCell id="53a5jM5eO1rhn4Mg1j0m-32" value="combineResults(imageResult, textResult)" style="text;html=1;align=center;verticalAlign=middle;whiteSpace=wrap;rounded=0;" vertex="1" parent="1">
          <mxGeometry x="841.31" y="1110" width="250" height="30" as="geometry" />
        </mxCell>
        <mxCell id="53a5jM5eO1rhn4Mg1j0m-33" value="isValid (boolean)" style="html=1;verticalAlign=bottom;endArrow=open;dashed=1;endSize=8;curved=0;rounded=0;" edge="1" parent="1">
          <mxGeometry relative="1" as="geometry">
            <mxPoint x="1448.6899999999996" y="1200.0000000000002" as="sourcePoint" />
            <mxPoint x="811.31" y="1200.0000000000002" as="targetPoint" />
          </mxGeometry>
        </mxCell>
        <mxCell id="53a5jM5eO1rhn4Mg1j0m-36" value="" style="endArrow=classic;html=1;rounded=0;" edge="1" parent="1">
          <mxGeometry width="50" height="50" relative="1" as="geometry">
            <mxPoint x="821.31" y="1250.0000000000002" as="sourcePoint" />
            <mxPoint x="1021.31" y="1250.0000000000002" as="targetPoint" />
          </mxGeometry>
        </mxCell>
        <mxCell id="53a5jM5eO1rhn4Mg1j0m-37" value="updateStatus(&quot;VALID&quot; ή &quot;INVALID&quot;)" style="text;html=1;align=center;verticalAlign=middle;whiteSpace=wrap;rounded=0;" vertex="1" parent="1">
          <mxGeometry x="841.31" y="1220" width="160" height="30" as="geometry" />
        </mxCell>
        <mxCell id="53a5jM5eO1rhn4Mg1j0m-38" value="" style="endArrow=classic;html=1;rounded=0;" edge="1" parent="1">
          <mxGeometry width="50" height="50" relative="1" as="geometry">
            <mxPoint x="812.06" y="1304.5000000000002" as="sourcePoint" />
            <mxPoint x="591.31" y="1304.5000000000002" as="targetPoint" />
          </mxGeometry>
        </mxCell>
        <mxCell id="53a5jM5eO1rhn4Mg1j0m-39" value="displayValidationResult(status)" style="text;html=1;align=center;verticalAlign=middle;whiteSpace=wrap;rounded=0;" vertex="1" parent="1">
          <mxGeometry x="611.31" y="1280" width="170" height="30" as="geometry" />
        </mxCell>
        <mxCell id="53a5jM5eO1rhn4Mg1j0m-40" value="" style="endArrow=classic;html=1;rounded=0;" edge="1" parent="1">
          <mxGeometry width="50" height="50" relative="1" as="geometry">
            <mxPoint x="590.8099999999997" y="1320.0000000000002" as="sourcePoint" />
            <mxPoint x="431.31" y="1320.0000000000002" as="targetPoint" />
          </mxGeometry>
        </mxCell>
        <mxCell id="53a5jM5eO1rhn4Mg1j0m-41" value="showResult(status)" style="text;html=1;align=center;verticalAlign=middle;whiteSpace=wrap;rounded=0;" vertex="1" parent="1">
          <mxGeometry x="431.31" y="1290" width="160" height="30" as="geometry" />
        </mxCell>
        <mxCell id="53a5jM5eO1rhn4Mg1j0m-42" value="alt" style="shape=umlFrame;whiteSpace=wrap;html=1;pointerEvents=0;recursiveResize=0;container=1;collapsible=0;width=170;" vertex="1" parent="1">
          <mxGeometry x="410" y="550" width="1070" height="200" as="geometry" />
        </mxCell>
        <mxCell id="53a5jM5eO1rhn4Mg1j0m-43" value="[imageResult.isAppropriate == false]" style="text;html=1;" vertex="1" parent="53a5jM5eO1rhn4Mg1j0m-42">
          <mxGeometry width="100" height="20" relative="1" as="geometry">
            <mxPoint x="20" y="40" as="offset" />
          </mxGeometry>
        </mxCell>
        <mxCell id="53a5jM5eO1rhn4Mg1j0m-44" value="[else]" style="line;strokeWidth=1;dashed=1;labelPosition=center;verticalLabelPosition=bottom;align=left;verticalAlign=top;spacingLeft=20;spacingTop=15;html=1;whiteSpace=wrap;" vertex="1" parent="53a5jM5eO1rhn4Mg1j0m-42">
          <mxGeometry y="130" width="1030" height="10" as="geometry" />
        </mxCell>
        <mxCell id="53a5jM5eO1rhn4Mg1j0m-48" value="updateStatus(&quot;INVALID&quot;)" style="text;html=1;align=center;verticalAlign=middle;whiteSpace=wrap;rounded=0;" vertex="1" parent="53a5jM5eO1rhn4Mg1j0m-42">
          <mxGeometry x="430" y="40" width="160" height="30" as="geometry" />
        </mxCell>
        <mxCell id="53a5jM5eO1rhn4Mg1j0m-50" value="" style="endArrow=classic;html=1;rounded=0;" edge="1" parent="53a5jM5eO1rhn4Mg1j0m-42">
          <mxGeometry width="50" height="50" relative="1" as="geometry">
            <mxPoint x="410.92999999999995" y="100" as="sourcePoint" />
            <mxPoint x="190.00142857142862" y="100" as="targetPoint" />
          </mxGeometry>
        </mxCell>
        <mxCell id="53a5jM5eO1rhn4Mg1j0m-46" value="" style="endArrow=classic;html=1;rounded=0;exitX=1;exitY=0.649;exitDx=0;exitDy=0;exitPerimeter=0;" edge="1" parent="53a5jM5eO1rhn4Mg1j0m-42">
          <mxGeometry width="50" height="50" relative="1" as="geometry">
            <mxPoint x="410" y="70.00000000000011" as="sourcePoint" />
            <mxPoint x="610" y="70.00000000000011" as="targetPoint" />
          </mxGeometry>
        </mxCell>
        <mxCell id="53a5jM5eO1rhn4Mg1j0m-51" value="displayValidationResult(&quot;INVALID&quot;)" style="text;html=1;align=center;verticalAlign=middle;whiteSpace=wrap;rounded=0;" vertex="1" parent="53a5jM5eO1rhn4Mg1j0m-42">
          <mxGeometry x="210" y="70" width="160" height="30" as="geometry" />
        </mxCell>
        <mxCell id="53a5jM5eO1rhn4Mg1j0m-52" value="" style="endArrow=classic;html=1;rounded=0;" edge="1" parent="53a5jM5eO1rhn4Mg1j0m-42">
          <mxGeometry width="50" height="50" relative="1" as="geometry">
            <mxPoint x="175" y="119.99999999999977" as="sourcePoint" />
            <mxPoint x="20" y="119.99999999999977" as="targetPoint" />
          </mxGeometry>
        </mxCell>
        <mxCell id="53a5jM5eO1rhn4Mg1j0m-54" value="showResult(&quot;INVALID&quot;)" style="text;html=1;align=center;verticalAlign=middle;whiteSpace=wrap;rounded=0;" vertex="1" parent="53a5jM5eO1rhn4Mg1j0m-42">
          <mxGeometry x="20" y="90" width="160" height="30" as="geometry" />
        </mxCell>
        <mxCell id="53a5jM5eO1rhn4Mg1j0m-55" value="συνέχιση με analyzeText, combineResults" style="text;html=1;align=center;verticalAlign=middle;whiteSpace=wrap;rounded=0;" vertex="1" parent="53a5jM5eO1rhn4Mg1j0m-42">
          <mxGeometry x="20" y="170" width="270" height="30" as="geometry" />
        </mxCell>
        <mxCell id="53a5jM5eO1rhn4Mg1j0m-58" value="alt" style="shape=umlFrame;whiteSpace=wrap;html=1;pointerEvents=0;recursiveResize=0;container=1;collapsible=0;width=170;" vertex="1" parent="1">
          <mxGeometry x="410" y="860" width="1070" height="200" as="geometry" />
        </mxCell>
        <mxCell id="53a5jM5eO1rhn4Mg1j0m-59" value="[ textResult.isAppropriate == false ]" style="text;html=1;" vertex="1" parent="53a5jM5eO1rhn4Mg1j0m-58">
          <mxGeometry width="200" height="20" relative="1" as="geometry">
            <mxPoint x="20" y="40" as="offset" />
          </mxGeometry>
        </mxCell>
        <mxCell id="53a5jM5eO1rhn4Mg1j0m-60" value="[else]" style="line;strokeWidth=1;dashed=1;labelPosition=center;verticalLabelPosition=bottom;align=left;verticalAlign=top;spacingLeft=20;spacingTop=15;html=1;whiteSpace=wrap;" vertex="1" parent="53a5jM5eO1rhn4Mg1j0m-58">
          <mxGeometry y="130" width="1030" height="10" as="geometry" />
        </mxCell>
        <mxCell id="53a5jM5eO1rhn4Mg1j0m-61" value="updateStatus(&quot;INVALID&quot;)" style="text;html=1;align=center;verticalAlign=middle;whiteSpace=wrap;rounded=0;" vertex="1" parent="53a5jM5eO1rhn4Mg1j0m-58">
          <mxGeometry x="430" y="40" width="160" height="30" as="geometry" />
        </mxCell>
        <mxCell id="53a5jM5eO1rhn4Mg1j0m-62" value="" style="endArrow=classic;html=1;rounded=0;" edge="1" parent="53a5jM5eO1rhn4Mg1j0m-58">
          <mxGeometry width="50" height="50" relative="1" as="geometry">
            <mxPoint x="410.92999999999995" y="100" as="sourcePoint" />
            <mxPoint x="190.00142857142862" y="100" as="targetPoint" />
          </mxGeometry>
        </mxCell>
        <mxCell id="53a5jM5eO1rhn4Mg1j0m-63" value="" style="endArrow=classic;html=1;rounded=0;exitX=1;exitY=0.649;exitDx=0;exitDy=0;exitPerimeter=0;" edge="1" parent="53a5jM5eO1rhn4Mg1j0m-58">
          <mxGeometry width="50" height="50" relative="1" as="geometry">
            <mxPoint x="410" y="70.00000000000011" as="sourcePoint" />
            <mxPoint x="610" y="70.00000000000011" as="targetPoint" />
          </mxGeometry>
        </mxCell>
        <mxCell id="53a5jM5eO1rhn4Mg1j0m-64" value="displayValidationResult(&quot;INVALID&quot;)" style="text;html=1;align=center;verticalAlign=middle;whiteSpace=wrap;rounded=0;" vertex="1" parent="53a5jM5eO1rhn4Mg1j0m-58">
          <mxGeometry x="210" y="70" width="160" height="30" as="geometry" />
        </mxCell>
        <mxCell id="53a5jM5eO1rhn4Mg1j0m-65" value="" style="endArrow=classic;html=1;rounded=0;" edge="1" parent="53a5jM5eO1rhn4Mg1j0m-58">
          <mxGeometry width="50" height="50" relative="1" as="geometry">
            <mxPoint x="175" y="119.99999999999977" as="sourcePoint" />
            <mxPoint x="20" y="119.99999999999977" as="targetPoint" />
          </mxGeometry>
        </mxCell>
        <mxCell id="53a5jM5eO1rhn4Mg1j0m-66" value="showResult(&quot;INVALID&quot;)" style="text;html=1;align=center;verticalAlign=middle;whiteSpace=wrap;rounded=0;" vertex="1" parent="53a5jM5eO1rhn4Mg1j0m-58">
          <mxGeometry x="20" y="90" width="160" height="30" as="geometry" />
        </mxCell>
        <mxCell id="53a5jM5eO1rhn4Mg1j0m-67" value="συνέχιση με combineResults" style="text;html=1;align=center;verticalAlign=middle;whiteSpace=wrap;rounded=0;" vertex="1" parent="53a5jM5eO1rhn4Mg1j0m-58">
          <mxGeometry x="-17.5" y="170" width="235" height="30" as="geometry" />
        </mxCell>
      </root>
    </mxGraphModel>
  </diagram>
</mxfile>
